<svg viewBox="0 0 480 240" fill="none" xmlns="http://www.w3.org/2000/svg">
  <!-- Gradient fill under the line -->
  <defs>
    <linearGradient id="areaGrad" x1="0" y1="0" x2="0" y2="1">
      <stop offset="0%" stop-color="#2962ff" stop-opacity="0.15"/>
      <stop offset="100%" stop-color="#2962ff" stop-opacity="0"/>
    </linearGradient>
    <linearGradient id="lineGrad" x1="0" y1="0" x2="1" y2="0">
      <stop offset="0%" stop-color="#2962ff"/>
      <stop offset="100%" stop-color="#10b981"/>
    </linearGradient>
  </defs>

  <!-- Area fill -->
  <path d="M0,180 C20,175 40,170 60,165 C80,160 95,168 110,155 C125,142 135,150 150,138 C165,126 175,132 190,118 C205,104 215,112 230,100 C245,88 255,95 270,82 C285,69 290,78 305,65 C320,52 330,60 345,48 C360,36 370,42 385,32 C400,22 420,28 440,18 C455,12 470,8 480,5 L480,240 L0,240 Z"
    fill="url(#areaGrad)"/>

  <!-- Main trend line -->
  <path d="M0,180 C20,175 40,170 60,165 C80,160 95,168 110,155 C125,142 135,150 150,138 C165,126 175,132 190,118 C205,104 215,112 230,100 C245,88 255,95 270,82 C285,69 290,78 305,65 C320,52 330,60 345,48 C360,36 370,42 385,32 C400,22 420,28 440,18 C455,12 470,8 480,5"
    stroke="url(#lineGrad)" stroke-width="2.5" fill="none" stroke-linecap="round" stroke-linejoin="round"/>

  <!-- End dot with pulse -->
  <circle cx="480" cy="5" r="6" fill="#10b981" opacity="0.15"/>
  <circle cx="480" cy="5" r="3" fill="#10b981"/>

  <!-- Arrow indicator -->
  <g transform="translate(420, 8)">
    <polygon points="0,16 10,0 20,16" fill="#10b981" opacity="0.9"/>
  </g>
</svg>
